<svg width="158" height="22" viewBox="0 0 158 22" fill="none" xmlns="http://www.w3.org/2000/svg">
<path d="M0 13.068C0 18.1508 2.93503 21.6839 9.23763 21.6839C15.4784 21.6839 18.4135 18.1818 18.4135 13.037V0.639954H13.9646V12.913C13.9646 15.7953 12.3889 17.7789 9.23763 17.7789C6.02454 17.7789 4.44889 15.7953 4.44889 12.913V0.639954H0V13.068Z" fill="#151515"/>
<path d="M39.3728 8.91675C39.3728 3.83397 36.4378 0.300811 30.1352 0.30081C23.8944 0.30081 20.9593 3.80297 20.9593 8.94775L20.9593 21.3448L25.4082 21.3448L25.4082 9.07172C25.4082 6.1894 26.9839 4.20588 30.1352 4.20588C33.3483 4.20588 34.9239 6.1894 34.9239 9.07172L34.9239 21.3448L39.3728 21.3448L39.3728 8.91675Z" fill="#151515"/>
<path d="M53.4732 21.3436C57.4078 21.3436 59.4836 18.8603 59.4836 15.7562C59.4836 13.1487 57.7176 11.0068 55.518 10.6654C57.4698 10.2618 59.0808 8.52353 59.0808 5.91606C59.0808 3.15338 57.067 0.639038 53.1324 0.639038H42.2581V21.3436H53.4732ZM46.6574 4.39504H52.172C53.6591 4.39504 54.5885 5.38836 54.5885 6.66105C54.5885 7.99583 53.6591 8.95811 52.172 8.95811H46.6574V4.39504ZM46.6574 12.7141H52.3269C54.0619 12.7141 54.9913 13.8316 54.9913 15.1353C54.9913 16.6253 53.9999 17.5876 52.3269 17.5876H46.6574V12.7141Z" fill="#151515"/>
<path d="M74.927 21.3436V17.4634V17.4634C70.0958 17.4634 66.1794 13.547 66.1794 8.71579V0.639038H61.7745V8.1911C61.7745 15.455 67.6631 21.3436 74.927 21.3436V21.3436Z" fill="#151515"/>
<path d="M82.3943 21.3436V0.639038H77.9819V21.3436H82.3943Z" fill="#151515"/>
<path d="M104.881 21.3436V0.639038H100.501V14.0489L90.9707 0.639038H86.4675V21.3436H90.8473V7.43709L100.655 21.3436H104.881Z" fill="#151515"/>
<path d="M119.436 21.3436L111.417 10.8216L118.882 0.639038H113.499L106.239 10.8216L114.053 21.3436H119.436Z" fill="#151515"/>
<path d="M135.513 21.3436V17.5255H125.368V12.7141H135.298V8.92707H125.368V4.42608H135.513V0.639038H121.003V21.3436H135.513Z" fill="#151515"/>
<path d="M147.046 21.3436C153.513 21.3436 158 17.2461 158 11.0068C158 4.76753 153.513 0.639038 147.046 0.639038H138.908V21.3436H147.046ZM143.302 4.5192H147.046C151.285 4.5192 153.513 7.34396 153.513 11.0068C153.513 14.5145 151.13 17.4634 147.046 17.4634H143.302V4.5192Z" fill="#151515"/>
</svg>
