<svg width="36" height="32" viewBox="0 0 36 32" fill="none" xmlns="http://www.w3.org/2000/svg">
<path d="M25.1507 22.6263L25.032 23.4751L9.18632 21.2579L9.3051 20.4091L11.3033 18.9577L12.016 13.8644C12.3842 11.2329 14.4955 9.16555 17.2145 8.78438L17.249 8.5382C17.312 8.08793 17.5579 7.68206 17.9326 7.40987C18.3074 7.13768 18.7802 7.02147 19.2472 7.08681C19.7141 7.15215 20.1369 7.39368 20.4225 7.75827C20.7082 8.12286 20.8332 8.58064 20.7702 9.03091L20.7358 9.27709C23.2458 10.3899 24.7086 12.9574 24.3403 15.5889L23.6277 20.6822L25.1507 22.6263ZM18.751 23.4618C18.688 23.912 18.4421 24.3179 18.0673 24.5901C17.6926 24.8623 17.2197 24.9785 16.7528 24.9131C16.2859 24.8478 15.8631 24.6063 15.5774 24.2417C15.2918 23.8771 15.1667 23.4193 15.2297 22.969" fill="#303236"/>
<circle cx="24" cy="10" r="3" fill="#FF4141"/>
</svg>
